<?xml version="1.0" encoding="UTF-8" standalone="no"?>
<!-- Uploaded to: SVG Repo, www.svgrepo.com, Generator: SVG Repo Mixer Tools -->

<svg
   fill="#000000"
   version="1.1"
   id="Capa_1"
   width="800px"
   height="800px"
   viewBox="0 0 122.699 122.699"
   xml:space="preserve"
   sodipodi:docname="hr.svg"
   inkscape:version="1.3 (0e150ed6c4, 2023-07-21)"
   xmlns:inkscape="http://www.inkscape.org/namespaces/inkscape"
   xmlns:sodipodi="http://sodipodi.sourceforge.net/DTD/sodipodi-0.dtd"
   xmlns="http://www.w3.org/2000/svg"
   xmlns:svg="http://www.w3.org/2000/svg"><defs
   id="defs3" /><sodipodi:namedview
   id="namedview3"
   pagecolor="#ffffff"
   bordercolor="#000000"
   borderopacity="0.25"
   inkscape:showpageshadow="2"
   inkscape:pageopacity="0.0"
   inkscape:pagecheckerboard="0"
   inkscape:deskcolor="#d1d1d1"
   inkscape:zoom="0.63625"
   inkscape:cx="400"
   inkscape:cy="400"
   inkscape:window-width="1366"
   inkscape:window-height="705"
   inkscape:window-x="-8"
   inkscape:window-y="-8"
   inkscape:window-maximized="1"
   inkscape:current-layer="g3" />&#10;<g
   id="g3">&#10;	<circle
   cx="19.5"
   cy="12.2"
   r="12.1"
   id="circle1"
   style="fill:#ffffff" />&#10;	<path
   d="M6,66.699h1.2v24c0,3.301,2.7,6,6,6h12.6c3.3,0,6-2.699,6-6V89.3c-1.1-2.101-1.8-4.5-1.8-7v-31.4c0-6.1,3.7-11.4,9-13.7   v-2.4c0-3.3-2.7-6-6-6H6c-3.3,0-6,2.7-6,6v25.9C0,64,2.6,66.699,6,66.699z"
   id="path1"
   style="fill:#ffffff" />&#10;	<circle
   cx="103.3"
   cy="12.2"
   r="12.1"
   id="circle2"
   style="fill:#ffffff" />&#10;	<path
   d="M83.699,34.7v2.4c5.301,2.3,9,7.6,9,13.7v31.3c0,2.5-0.6,4.9-1.799,7v1.4c0,3.3,2.699,6,6,6h12.6c3.3,0,6-2.7,6-6v-24   h1.199c3.301,0,6-2.7,6-6V34.7c0-3.3-2.699-6-6-6h-27C86.4,28.7,83.699,31.399,83.699,34.7z"
   id="path2"
   style="fill:#ffffff" />&#10;	<path
   d="M39.1,50.899L39.1,50.899v9.8v21.6c0,3.3,2.7,6,6,6h2.3v28.3c0,3.3,2.7,6,6,6h16.1c3.3,0,6-2.7,6-6v-28.4h2.3   c3.3,0,6-2.699,6-6V60.7v-9.8l0,0c0-3.3-2.7-6-6-6H45.1C41.7,44.899,39.1,47.6,39.1,50.899z"
   id="path3"
   style="fill:#ffffff" />&#10;	<circle
   cx="61.4"
   cy="26"
   r="13.9"
   id="circle3"
   style="fill:#ffffff" />&#10;</g>&#10;</svg>
