<?xml version="1.0" encoding="UTF-8" standalone="no"?>
<!-- Uploaded to: SVG Repo, www.svgrepo.com, Generator: SVG Repo Mixer Tools -->

<svg
   width="800px"
   height="800px"
   viewBox="0 0 1024 1024"
   version="1.1"
   id="svg1"
   sodipodi:docname="service.svg"
   inkscape:version="1.3 (0e150ed6c4, 2023-07-21)"
   xmlns:inkscape="http://www.inkscape.org/namespaces/inkscape"
   xmlns:sodipodi="http://sodipodi.sourceforge.net/DTD/sodipodi-0.dtd"
   xmlns="http://www.w3.org/2000/svg"
   xmlns:svg="http://www.w3.org/2000/svg">
  <defs
     id="defs1" />
  <sodipodi:namedview
     id="namedview1"
     pagecolor="#ffffff"
     bordercolor="#000000"
     borderopacity="0.25"
     inkscape:showpageshadow="2"
     inkscape:pageopacity="0.0"
     inkscape:pagecheckerboard="0"
     inkscape:deskcolor="#d1d1d1"
     inkscape:zoom="0.63625"
     inkscape:cx="400"
     inkscape:cy="400"
     inkscape:window-width="1366"
     inkscape:window-height="705"
     inkscape:window-x="-8"
     inkscape:window-y="-8"
     inkscape:window-maximized="1"
     inkscape:current-layer="svg1" />
  <path
     fill="#000000"
     d="M864 409.6a192 192 0 0 1-37.888 349.44A256.064 256.064 0 0 1 576 960h-96a32 32 0 1 1 0-64h96a192.064 192.064 0 0 0 181.12-128H736a32 32 0 0 1-32-32V416a32 32 0 0 1 32-32h32c10.368 0 20.544.832 30.528 2.432a288 288 0 0 0-573.056 0A193.235 193.235 0 0 1 256 384h32a32 32 0 0 1 32 32v320a32 32 0 0 1-32 32h-32a192 192 0 0 1-96-358.4 352 352 0 0 1 704 0zM256 448a128 128 0 1 0 0 256V448zm640 128a128 128 0 0 0-128-128v256a128 128 0 0 0 128-128z"
     id="path1"
     style="fill:#f9f9f9" />
</svg>
